<svg width="142" height="32" viewBox="0 0 142 32" fill="none" xmlns="http://www.w3.org/2000/svg">
<path d="M0 0V8.00302H7.99893C7.99893 3.58277 4.42025 0 0 0Z" fill="#FFFFFF"/>
<path d="M15.9979 8.00305H7.99893V16.002H15.9979V24.0009H7.99893C7.99893 19.5807 4.41616 16.002 0 16.002V24.0009C4.42025 24.0009 7.99893 27.5837 7.99893 31.9999H15.9979L24.0009 24.0009V16.002L15.9979 8.00305Z" fill="#FFFFFF"/>
<path d="M104.052 14.2101C103.518 13.4397 102.736 12.8571 101.742 12.517C100.523 12.0998 99.0703 12.0679 97.1535 12.0679C95.2368 12.0679 93.7823 12.0998 92.5646 12.517C91.0237 13.045 89.9902 14.1519 89.605 15.642C89.4922 16.0761 89.434 16.5403 89.434 17.0345H92.606C92.606 15.3827 93.7203 15.238 97.1535 15.238C100.587 15.238 101.699 15.3827 101.699 17.0345V17.711C101.566 17.6734 101.43 17.6377 101.288 17.6057C100.254 17.384 98.997 17.3445 96.7364 17.3445C94.4757 17.3445 93.2167 17.384 92.1832 17.6057C89.5411 18.1714 88.5996 20.1144 88.5996 21.7436C88.5996 23.3729 89.5411 25.314 92.1832 25.8815C93.2167 26.1033 94.4739 26.1409 96.7364 26.1409H96.836C101.158 26.1315 101.699 23.5288 101.699 23.5288V25.4475H104.871V17.0345C104.871 15.9389 104.586 14.9806 104.052 14.2101ZM101.699 21.7436V21.7474C101.699 22.8711 101.387 22.9707 96.7345 22.9707C92.0817 22.9707 91.7697 22.8711 91.7697 21.7436C91.7697 20.6162 92.0779 20.5166 96.7345 20.5166C101.391 20.5166 101.699 20.6162 101.699 21.7399V21.7436Z" fill="#FFFFFF"/>
<path d="M119.455 12.7613V14.6799C119.455 14.6799 118.912 12.0679 114.568 12.0679C110.223 12.0679 106.51 13.5054 106.51 19.1053C106.51 24.7052 110.118 26.1409 114.569 26.1409H114.605C118.916 26.1258 119.455 23.5288 119.455 23.5288V27.0335C119.455 28.6852 118.343 28.8281 114.91 28.8281C111.476 28.8281 110.362 28.6852 110.362 27.0335H107.19C107.19 27.5277 107.248 27.9918 107.361 28.4259C107.748 29.9161 108.78 31.0229 110.321 31.551C111.538 31.9681 112.991 32.0001 114.91 32.0001C116.828 32.0001 118.279 31.9681 119.498 31.551C121.487 30.8707 122.627 29.2227 122.627 27.0335V12.7613H119.455ZM114.568 22.9144C110.879 22.9144 109.682 22.6081 109.682 19.1091C109.682 15.6101 110.879 15.3057 114.568 15.3057C118.256 15.3057 119.455 15.612 119.455 19.1091C119.455 22.6062 118.258 22.9144 114.568 22.9144Z" fill="#FFFFFF"/>
<path d="M60.0667 15.9653V19.1373C60.0686 22.018 60.1381 22.2755 62.6937 22.2755H66.4088V25.4475H62.6937C61.181 25.4475 59.6157 25.4475 58.3529 24.3858C57.6238 23.7732 57.2592 23.0403 57.0769 22.3093C57.0394 22.1552 57.0093 22.0011 56.9849 21.8489C56.8947 21.2758 56.8947 20.7177 56.8947 20.2291V15.9653H53.7227V12.7933H56.8947V8.03711H60.0667V14.6762C60.0704 14.6593 60.1118 14.4751 60.2471 14.212C60.7018 13.3288 61.6339 12.7933 62.6299 12.7933H66.4088V15.9653H60.0667Z" fill="#FFFFFF"/>
<path d="M48.9121 15.9337V19.1039V22.2759V25.4479H52.0822V22.2759V19.1039V15.9337V12.7617H48.9121V15.9337Z" fill="#FFFFFF"/>
<path d="M52.0841 8.00342H48.9121V11.1754H52.0841V8.00342Z" fill="#FFFFFF"/>
<path d="M85.8246 12.7617L84.669 15.9337L83.5152 19.1039L82.7917 21.0901L82.0682 19.1039L80.9144 15.9337L79.7606 12.7617H76.5886L75.4348 15.9337L74.2791 19.1039L73.5575 21.0901L72.834 19.1039L71.6784 15.9337L70.5246 12.7617H67.3525L68.5082 15.9337L69.662 19.1039L70.8158 22.2759L71.9715 25.4479H75.1416L76.2973 22.2759L77.4511 19.1039L78.1746 17.1176L78.8981 19.1039L80.0519 22.2759L81.2057 25.4479H84.3777L85.5315 22.2759L86.6872 19.1039L87.841 15.9337L88.9948 12.7617H85.8246Z" fill="#FFFFFF"/>
<path d="M39.215 12.0662C34.8722 12.0662 34.3273 14.6801 34.3273 14.6801V8.00342H31.1553V25.4476H34.3273V23.529C34.3273 23.529 34.8722 26.141 39.215 26.141C43.5577 26.141 47.2747 24.7035 47.2747 19.1036C47.2747 13.5037 43.6667 12.0662 39.215 12.0662ZM39.215 22.9126C35.5243 22.9126 34.3273 22.6082 34.3273 19.1092C34.3273 15.6102 35.5243 15.3058 39.215 15.3058C42.9056 15.3058 44.1027 15.6102 44.1027 19.1092C44.1027 22.6082 42.9056 22.9126 39.215 22.9126Z" fill="#FFFFFF"/>
<path d="M134.601 12.2182C133.879 12.113 133.116 12.0679 132.325 12.0679C131.534 12.0679 130.771 12.113 130.05 12.2182C126.707 12.7106 124.266 14.4995 124.266 19.1053C124.266 19.609 124.296 20.0806 124.35 20.5185C124.921 24.9533 128.274 26.1428 132.325 26.1428C135.982 26.1428 139.07 25.1713 140.054 21.7174H136.728C136.084 22.7847 134.736 22.9144 132.325 22.9144C129.206 22.9144 127.868 22.6964 127.528 20.5185H140.3C140.334 20.2403 140.361 19.9472 140.372 19.6409C140.381 19.4661 140.385 19.2876 140.385 19.1053C140.385 14.4995 137.944 12.7106 134.601 12.2182ZM127.597 17.3465C128.03 15.5011 129.386 15.3076 132.325 15.3076C135.264 15.3076 136.621 15.5011 137.053 17.3465H127.597Z" fill="#FFFFFF"/>
</svg>
